<svg width="1024.000000" height="1024.000000" viewBox="0 0 1024 1024" fill="none" xmlns="http://www.w3.org/2000/svg" xmlns:xlink="http://www.w3.org/1999/xlink">
	<desc>
			Created with Pixso.
	</desc>
	<defs>
		<clipPath id="clip2_1">
			<rect id="背景" rx="128.000000" width="1024.000000" height="1024.000000" fill="white"/>
		</clipPath>
		<linearGradient id="paint_linear_2_45_0" x1="222.000031" y1="810.999817" x2="818.568848" y2="213.000153" gradientUnits="userSpaceOnUse">
			<stop stop-color="#6611CC"/>
			<stop offset="1.000000" stop-color="#2277FF"/>
		</linearGradient>
		<linearGradient id="paint_linear_2_49_0" x1="509.928772" y1="373.000000" x2="509.928772" y2="717.000000" gradientUnits="userSpaceOnUse">
			<stop stop-color="#6611CC"/>
			<stop offset="1.000000" stop-color="#6611CC" stop-opacity="0.000000"/>
		</linearGradient>
	</defs>
	<rect id="背景" rx="128.000000" width="1024.000000" height="1024.000000" fill="#FFFFFF"/>
	<g clip-path="url(#clip2_1)">
		<path id="球" d="M565.28 564.329C526.632 571.143 488.498 575.678 450.876 577.933C434.369 558.986 410.069 547 383 547C356.853 547 333.29 558.183 316.839 576.021C285.033 573.014 254.77 568.116 226.049 561.327C225.527 558.182 225.055 555.026 224.634 551.867Q222 532.109 222 512C222 489.54 224.402 467.619 229.207 446.239Q235.013 420.402 245.497 395.616C252.594 378.835 261.065 362.951 270.904 347.971Q287.606 322.544 309.575 300.575C324.224 285.927 340.035 273.028 356.99 261.892L356.993 261.89L357.003 261.884L357.009 261.88Q379.464 247.135 404.616 236.496C421.147 229.504 438.03 224.073 455.263 220.202Q487.323 213 521 213Q553.243 213 584.061 219.625Q607.981 224.767 631.042 233.9Q654.694 243.267 676.125 256.289C692.63 266.318 708.147 277.973 722.676 291.254C736.899 304.255 749.663 318.347 760.966 333.523C771.115 347.152 780.087 361.658 787.881 377.041C796.098 393.258 802.743 409.949 807.813 427.097L807.82 427.119Q815.785 454.072 818.569 482.557Q705.512 539.602 565.28 564.329ZM405 331C365.236 331 333 363.236 333 403C333 442.764 365.236 475 405 475C444.764 475 477 442.764 477 403C477 363.236 444.764 331 405 331ZM576 403C576 378.699 595.699 359 620 359C644.301 359 664 378.699 664 403C664 427.301 644.301 447 620 447C595.699 447 576 427.301 576 403ZM282.246 692.022C292.52 692.946 302.926 693.642 313.467 694.109C329.981 714.185 355.01 727 383 727C414.013 727 441.391 711.268 457.579 687.358C500.563 681.776 543.876 673.139 587.517 661.446Q712.971 627.829 814.602 568.855C811.531 584.822 807.223 600.332 801.677 615.387Q792.505 640.285 778.82 663.521C770.464 677.707 761.082 691.036 750.674 703.508C739.412 717.002 726.948 729.493 713.283 740.982C699.04 752.955 683.958 763.443 668.037 772.446C654.348 780.188 640.038 786.831 625.107 792.377C610.837 797.678 596.334 801.847 581.598 804.885C561.819 808.961 541.62 811 521 811C495.295 811 470.388 807.896 446.281 801.689Q414.465 793.497 384.505 778.097C364.366 767.746 345.834 755.476 328.911 741.288Q303.082 719.634 282.246 692.022ZM553 717C534.775 717 520 731.775 520 750C520 768.225 534.775 783 553 783C571.225 783 586 768.225 586 750C586 731.775 571.225 717 553 717Z" clip-rule="evenodd" fill-rule="evenodd" fill="url(#paint_linear_2_45_0)" fill-opacity="1.000000"/>
		<path id="环" d="M823.625 396.821C821.646 391.693 818.727 385.992 815.009 380.267C813.457 377.878 811.853 375.618 810.229 373.513C810.153 373.346 810.076 373.175 810 373C810.434 373.183 810.885 373.365 811.353 373.548C823.321 378.229 846.149 383.077 867.5 393.5C891.308 405.123 904.882 418.696 909.595 433.484C926.712 439.511 939 455.836 939 475C939 499.279 919.279 519 895 519C885.556 519 876.802 516.016 869.629 510.941C814.571 556.823 709.856 602.996 583.5 634.5C542.252 644.784 500.772 652.474 460.286 657.715C451.146 691.835 419.98 717 383 717C349.091 717 320.072 695.842 308.439 666.023C153.444 661.918 47.4778 615.419 90.5 538.5C107.513 514.519 149.5 486.5 181 474C188.159 471.159 192.761 469.581 195.599 469.032C194.321 473.745 193.203 478.737 192.287 483.929C190.651 493.209 189.842 502.111 189.781 510.123C187.742 512.053 184.912 514.131 181 516.5C160.938 528.646 131.612 558.612 140.5 567.5C146.911 578.929 216.054 595.921 311.11 601.893C324.127 575.321 351.447 557 383 557C414.42 557 441.642 575.166 454.724 601.556C491.931 599.001 530.151 594.357 568 587C696.353 562.051 802.453 522.435 852.473 486.318C851.512 482.706 851 478.912 851 475C851 455.918 863.182 439.652 880.184 433.562C876.866 426.843 870.746 420.99 858.5 414C846.711 407.271 834.693 401.12 823.625 396.821Z" clip-rule="evenodd" fill-rule="evenodd" fill="url(#paint_linear_2_49_0)" fill-opacity="1.000000"/>
	</g>
</svg>
