<svg width="1024.000000" height="1024.000000" viewBox="0 0 1024 1024" fill="none" xmlns="http://www.w3.org/2000/svg" xmlns:xlink="http://www.w3.org/1999/xlink">
	<desc>
			Created with Pixso.
	</desc>
	<defs>
		<clipPath id="clip2_52">
			<rect id="背景" rx="128.000000" width="1024.000000" height="1024.000000" fill="white"/>
		</clipPath>
	</defs>
	<g clip-path="url(#clip2_52)">
		<path id="球" d="M577.702 574.48C531.576 582.616 486.063 588.031 441.161 590.723C421.461 568.1 392.459 553.789 360.152 553.789C328.946 553.789 300.824 567.141 281.189 588.44C243.229 584.849 207.111 579.001 172.833 570.895C172.21 567.14 171.646 563.372 171.144 559.601C169.048 543.874 168 528.007 168 512C168 485.183 170.867 459.01 176.601 433.483L176.617 433.413L176.623 433.387Q183.55 402.588 196.043 373.04C204.514 353.004 214.624 334.039 226.367 316.153C239.656 295.913 255.04 277.05 272.52 259.563C290.003 242.073 308.874 226.672 329.11 213.376C346.983 201.633 365.93 191.526 385.951 183.054C405.681 174.706 425.83 168.221 446.397 163.599C471.906 157.866 498.058 155 524.854 155Q563.291 155 600.032 162.892L600.042 162.894L600.117 162.91C619.149 167.003 637.839 172.685 656.189 179.954Q684.366 191.118 709.902 206.63L709.994 206.686C729.693 218.66 748.212 232.576 765.553 248.434C782.527 263.957 797.762 280.782 811.251 298.902C823.365 315.175 834.072 332.495 843.374 350.861C853.18 370.224 861.112 390.154 867.163 410.627C873.505 432.09 877.784 454.163 880 476.845C790.045 522.253 689.279 554.797 577.702 574.48ZM386.409 295.89C338.95 295.89 300.477 334.378 300.477 381.856C300.477 429.334 338.95 467.823 386.409 467.823C433.867 467.823 472.34 429.334 472.34 381.856C472.34 334.378 433.867 295.89 386.409 295.89ZM590.496 381.856C590.496 352.842 614.007 329.321 643.01 329.321C672.012 329.321 695.523 352.842 695.523 381.856C695.523 410.871 672.012 434.391 643.01 434.391C614.007 434.391 590.496 410.871 590.496 381.856ZM239.903 726.943C252.164 728.046 264.585 728.876 277.164 729.434C296.874 753.405 326.746 768.706 360.152 768.706C397.166 768.706 429.841 749.922 449.161 721.374C500.463 714.71 552.156 704.397 604.241 690.435C704.06 663.677 794.402 626.826 875.265 579.884C871.6 598.948 866.458 617.467 859.839 635.442C852.542 655.26 843.448 674.417 832.56 692.913C822.588 709.851 811.39 725.765 798.967 740.657C785.526 756.768 770.651 771.683 754.342 785.399C737.344 799.695 719.344 812.218 700.341 822.968C684.003 832.211 666.924 840.143 649.105 846.765C632.074 853.094 614.764 858.072 597.177 861.699C573.571 866.566 549.463 869 524.854 869C494.175 869 464.449 865.295 435.677 857.883C410.363 851.362 385.786 841.973 361.948 829.715C337.913 817.356 315.795 802.705 295.598 785.766C275.046 768.529 256.481 748.922 239.903 726.943ZM563.046 756.766C541.294 756.766 523.66 774.406 523.66 796.167C523.66 817.928 541.294 835.569 563.046 835.569C584.798 835.569 602.431 817.928 602.431 796.167C602.431 774.406 584.798 756.766 563.046 756.766Z" clip-rule="evenodd" fill-rule="evenodd" fill="#000000" fill-opacity="1.000000"/>
		<path id="环" d="M886.33 373.462C899.537 378.599 913.876 385.947 927.941 393.985C942.555 402.337 949.857 409.33 953.817 417.358C933.528 424.633 918.992 444.068 918.992 466.866C918.992 471.54 919.603 476.073 920.749 480.389C861.062 523.54 734.455 570.872 581.295 600.68C536.131 609.47 490.524 615.019 446.125 618.071C430.515 586.541 398.031 564.837 360.539 564.837C322.887 564.837 290.287 586.727 274.754 618.474C161.327 611.339 78.8205 591.037 71.1698 577.382C60.5639 566.763 95.5582 530.961 119.497 516.449C124.166 513.619 127.543 511.137 129.976 508.83C130.048 499.257 131.014 488.622 132.966 477.535C134.059 471.331 135.393 465.367 136.918 459.736C133.531 460.391 128.04 462.277 119.497 465.671C81.9093 480.606 31.8079 514.083 11.5061 542.734C-39.8312 634.634 86.616 690.189 271.567 695.094C285.448 730.721 320.077 756 360.539 756C404.667 756 441.856 725.933 452.762 685.168C501.073 678.906 550.57 669.719 599.791 657.431C750.568 619.792 875.522 564.626 941.222 509.807C949.78 515.871 960.227 519.436 971.496 519.436C1000.47 519.436 1024 495.873 1024 466.866C1024 443.97 1009.34 424.465 988.912 417.264C983.288 399.596 967.091 383.38 938.681 369.493C913.203 357.039 885.964 351.247 871.682 345.655C871.124 345.437 870.585 345.218 870.068 345C870.158 345.208 870.249 345.41 870.339 345.608C872.277 348.125 874.192 350.827 876.044 353.683C880.483 360.527 883.969 367.338 886.33 373.462Z" clip-rule="evenodd" fill-rule="evenodd" fill="#000000" fill-opacity="1.000000"/>
	</g>
</svg>
